<?xml version="1.0"?>
<svg xmlns="http://www.w3.org/2000/svg" xmlns:xlink="http://www.w3.org/1999/xlink" version="1.1" id="Layer_1" x="0px" y="0px" viewBox="0 0 478.035 478.035" style="enable-background:new 0 0 478.035 478.035;" xml:space="preserve" width="512px" height="512px"><g><g>
	<g>
		<g>
			<path d="M234.322,262.742c3.017,2.233,7.138,2.233,10.155,0l51.712-49.323L435.794,80.385l33.109-31.573     c-4.627-3.916-10.493-6.063-16.555-6.059H25.682c-6.248-0.104-12.318,2.082-17.067,6.144L181.842,213.42L234.322,262.742z" data-original="#000000" class="active-path" data-old_color="#000000" fill="#FFFFFF"/>
			<path d="M0.082,375.553l163.499-156.16L0.082,64.257c-0.109,1.363-0.109,2.733,0,4.096V375.553z" data-original="#000000" class="active-path" data-old_color="#000000" fill="#FFFFFF"/>
			<path d="M256.082,275.713c-4.828,3.902-10.859,6.013-17.067,5.973c-4.344-0.012-8.609-1.159-12.373-3.328     c-1.292-0.717-2.52-1.545-3.669-2.475l-47.019-44.715L0.082,398.849v10.837c0,14.138,11.462,25.6,25.6,25.6h429.909     c12.859-1.642,22.462-12.637,22.357-25.6v-11.008L302.503,231.51L256.082,275.713z" data-original="#000000" class="active-path" data-old_color="#000000" fill="#FFFFFF"/>
			<path d="M477.949,64.086L314.45,219.649l163.499,155.477V68.353C478.064,66.933,478.064,65.506,477.949,64.086z" data-original="#000000" class="active-path" data-old_color="#000000" fill="#FFFFFF"/>
		</g>
	</g>
</g></g> </svg>
