<svg id="Capa_1" enable-background="new 0 0 512 512" height="512" viewBox="0 0 512 512" width="512" xmlns="http://www.w3.org/2000/svg" xmlns:xlink="http://www.w3.org/1999/xlink"><linearGradient id="SVGID_1_" gradientUnits="userSpaceOnUse" x1="74.981" x2="437.02" y1="437.019" y2="74.98"><stop offset=".1" stop-color="#ff195e"/><stop offset="1" stop-color="#ffc5a3"/></linearGradient><radialGradient id="SVGID_2_" cx="262.085" cy="358.422" gradientUnits="userSpaceOnUse" r="363.875"><stop offset="0" stop-color="#ff195e"/><stop offset=".0355" stop-color="#ff2667" stop-opacity=".965"/><stop offset=".2378" stop-color="#ff6795" stop-opacity=".762"/><stop offset=".4304" stop-color="#ff9dbb" stop-opacity=".57"/><stop offset=".6082" stop-color="#ffc8d8" stop-opacity=".392"/><stop offset=".7679" stop-color="#ffe6ed" stop-opacity=".232"/><stop offset=".9039" stop-color="#fff8fa" stop-opacity=".096"/><stop offset="1" stop-color="#fff" stop-opacity="0"/></radialGradient><linearGradient id="lg1"><stop offset="0" stop-color="#ff195e"/><stop offset=".2168" stop-color="#ff2460"/><stop offset=".5928" stop-color="#ff4063"/><stop offset="1" stop-color="#ff6668"/></linearGradient><linearGradient id="SVGID_3_" gradientUnits="userSpaceOnUse" x1="219.278" x2="287.273" xlink:href="#lg1" y1="84.272" y2="16.277"/><linearGradient id="SVGID_4_" gradientUnits="userSpaceOnUse" x1="219.536" x2="289.11" xlink:href="#lg1" y1="153.229" y2="83.655"/><linearGradient id="SVGID_5_" gradientUnits="userSpaceOnUse" x1="241.255" x2="304.829" xlink:href="#lg1" y1="131.536" y2="67.961"/><linearGradient id="SVGID_6_" gradientUnits="userSpaceOnUse" x1="52.122" x2="490.088" xlink:href="#lg1" y1="561.206" y2="123.239"/><linearGradient id="SVGID_7_" gradientUnits="userSpaceOnUse" x1="-13.652" x2="388.274" xlink:href="#lg1" y1="564.313" y2="162.387"/><linearGradient id="SVGID_8_" gradientUnits="userSpaceOnUse" x1="182.674" x2="423.248" xlink:href="#lg1" y1="436.285" y2="195.711"/><linearGradient id="SVGID_9_" gradientUnits="userSpaceOnUse" x1="246" x2="279.921" xlink:href="#lg1" y1="57.552" y2="23.631"/><g><circle cx="256" cy="256" fill="url(#SVGID_1_)" r="256"/><circle cx="256" cy="256" fill="url(#SVGID_2_)" r="256"/><path d="m278.606 47.592c.066 12.724-10.058 22.878-22.606 22.883-12.546-.005-22.673-10.159-22.606-22.884.067-12.717 10.191-23.242 22.606-23.241 12.413-.001 22.539 10.524 22.606 23.242z" fill="url(#SVGID_3_)"/><path d="m286.478 116.813c.078 16.95-13.578 30.529-30.478 30.537-16.9-.009-30.556-13.588-30.478-30.537.081-16.943 13.734-30.961 30.478-30.963 16.744.002 30.398 14.021 30.478 30.963z" fill="url(#SVGID_4_)"/><path d="m263.634 131.987c-16.873-.059-30.514-13.665-30.445-30.629.005-1.881.189-3.722.515-5.513-5.037 5.541-8.152 12.916-8.182 20.968-.076 16.95 13.577 30.529 30.478 30.537 15.025-.005 27.483-10.751 30.001-25.04-5.547 5.98-13.513 9.704-22.367 9.677z" fill="url(#SVGID_5_)"/><path d="m369.451 316.294c-58.526-23.19-117.396-49.028-176.158-73.746-19.429 26.214-36.281 48.597-36.276 48.586-14.983 19.937-23.696 44.238-23.357 70.866 1.077 65.522 56.418 125.351 122.34 125.65 65.92-.299 121.263-60.128 122.34-125.65.203-16.27-2.975-31.64-8.889-45.706z" fill="url(#SVGID_6_)"/><path d="m369.451 316.294c-3.769-8.966-8.642-17.405-14.477-25.16.139.744-92.884-125.072-92.807-125.275-1.406-1.897-3.642-3.134-6.167-3.134s-4.759 1.237-6.156 3.134c.02-.053-30.458 41.516-56.551 76.689 33.646 62.094 106.444 94.907 176.158 73.746z" fill="url(#SVGID_7_)"/><path d="m278.702 441.366c-66.583.736-121.885-57.627-122.462-123.848-.06-10.527 1.277-20.707 3.819-30.431-1.945 2.593-3.043 4.046-3.042 4.046-14.983 19.937-23.696 44.238-23.357 70.866 1.077 65.522 56.418 125.351 122.34 125.65 55.75-.043 103.628-43.198 118.096-95.529-22.803 28.713-57.159 48.73-95.394 49.246z" fill="url(#SVGID_8_)"/><path d="m263.546 55.119c-12.514-.067-22.62-10.264-22.571-22.996.002-.634.034-1.261.087-1.882-4.666 4.278-7.638 10.49-7.669 17.351-.065 12.724 10.059 22.878 22.607 22.883 11.921-.005 21.653-9.176 22.533-21.004-3.973 3.544-9.225 5.677-14.987 5.648z" fill="url(#SVGID_9_)"/></g></svg>