<svg xmlns="http://www.w3.org/2000/svg" viewBox="0 0 925.48 260.37"><defs><style>.a,.b,.c{fill:#7096cb;}.b{font-size:153px;font-family:Syncopate-Bold, Syncopate;font-weight:700;letter-spacing:0.2em;}.c{font-size:48px;font-family:Raleway-Medium, Raleway;}.d{fill:#fff;}</style></defs><title>vazquez</title><polyline class="a" points="131.23 0 31.49 83.67 31.49 260.37 43.76 260.37 43.76 248.1 43.76 141.13 43.76 89.39 118.96 26.19 118.96 141.13 118.96 248.1 118.96 260.37 131.23 260.37 131.23 248.1 131.23 15.88 131.23 2.65"/><polyline class="a" points="147.82 4.6 147.82 260.37 160.09 260.37 160.09 14.91 147.82 4.6"/><polygon class="a" points="175.43 260.37 187.7 260.37 187.7 38.12 175.43 27.81 175.43 260.37"/><polygon class="a" points="203.04 51.01 203.04 260.37 215.32 260.37 215.32 61.33 203.04 51.01"/><text class="b" transform="translate(253.6 157.85)">LCV</text><text class="c" transform="translate(253.6 235.48)">Lavado de Cristales Vasquez</text><path class="d" d="M1,169.84a2781.69,2781.69,0,0,1,402.89-61.66A2835.32,2835.32,0,0,1,780.25,103C695.8,92.41,558.68,81,387.67,92.48c-89.07,6-229.7,21-387.67,62.79"/></svg>