<?xml version="1.0"?>
<svg xmlns="http://www.w3.org/2000/svg" id="Capa_1" enable-background="new 0 0 512 512" height="512px" viewBox="0 0 512 512" width="512px"><g><g><path d="m102.518 95.4c4.143 0 7.5-3.357 7.5-7.5v-8.915c0-4.143-3.357-7.5-7.5-7.5s-7.5 3.357-7.5 7.5v8.915c0 4.143 3.357 7.5 7.5 7.5z" data-original="#000000" class="active-path" data-old_color="#000000" fill="#5B98CF"/><path d="m72.667 95.4c4.143 0 7.5-3.357 7.5-7.5v-8.915c0-4.143-3.357-7.5-7.5-7.5s-7.5 3.357-7.5 7.5v8.915c0 4.143 3.358 7.5 7.5 7.5z" data-original="#000000" class="active-path" data-old_color="#000000" fill="#5B98CF"/><path d="m132.368 95.4c4.143 0 7.5-3.357 7.5-7.5v-8.915c0-4.143-3.357-7.5-7.5-7.5s-7.5 3.357-7.5 7.5v8.915c0 4.143 3.357 7.5 7.5 7.5z" data-original="#000000" class="active-path" data-old_color="#000000" fill="#5B98CF"/><path d="m102.518 142.522c4.143 0 7.5-3.357 7.5-7.5v-8.914c0-4.143-3.357-7.5-7.5-7.5s-7.5 3.357-7.5 7.5v8.914c0 4.143 3.357 7.5 7.5 7.5z" data-original="#000000" class="active-path" data-old_color="#000000" fill="#5B98CF"/><path d="m72.667 142.522c4.143 0 7.5-3.357 7.5-7.5v-8.914c0-4.143-3.357-7.5-7.5-7.5s-7.5 3.357-7.5 7.5v8.914c0 4.143 3.358 7.5 7.5 7.5z" data-original="#000000" class="active-path" data-old_color="#000000" fill="#5B98CF"/><path d="m132.368 142.522c4.143 0 7.5-3.357 7.5-7.5v-8.914c0-4.143-3.357-7.5-7.5-7.5s-7.5 3.357-7.5 7.5v8.914c0 4.143 3.357 7.5 7.5 7.5z" data-original="#000000" class="active-path" data-old_color="#000000" fill="#5B98CF"/><path d="m102.518 189.646c4.143 0 7.5-3.357 7.5-7.5v-8.915c0-4.143-3.357-7.5-7.5-7.5s-7.5 3.357-7.5 7.5v8.915c0 4.142 3.357 7.5 7.5 7.5z" data-original="#000000" class="active-path" data-old_color="#000000" fill="#5B98CF"/><path d="m72.667 189.646c4.143 0 7.5-3.357 7.5-7.5v-8.915c0-4.143-3.357-7.5-7.5-7.5s-7.5 3.357-7.5 7.5v8.915c0 4.142 3.358 7.5 7.5 7.5z" data-original="#000000" class="active-path" data-old_color="#000000" fill="#5B98CF"/><path d="m132.368 189.646c4.143 0 7.5-3.357 7.5-7.5v-8.915c0-4.143-3.357-7.5-7.5-7.5s-7.5 3.357-7.5 7.5v8.915c0 4.142 3.357 7.5 7.5 7.5z" data-original="#000000" class="active-path" data-old_color="#000000" fill="#5B98CF"/><path d="m192.069 95.4c4.143 0 7.5-3.357 7.5-7.5v-8.915c0-4.143-3.357-7.5-7.5-7.5s-7.5 3.357-7.5 7.5v8.915c0 4.143 3.357 7.5 7.5 7.5z" data-original="#000000" class="active-path" data-old_color="#000000" fill="#5B98CF"/><path d="m162.218 95.4c4.143 0 7.5-3.357 7.5-7.5v-8.915c0-4.143-3.357-7.5-7.5-7.5s-7.5 3.357-7.5 7.5v8.915c0 4.143 3.358 7.5 7.5 7.5z" data-original="#000000" class="active-path" data-old_color="#000000" fill="#5B98CF"/><path d="m192.069 142.522c4.143 0 7.5-3.357 7.5-7.5v-8.914c0-4.143-3.357-7.5-7.5-7.5s-7.5 3.357-7.5 7.5v8.914c0 4.143 3.357 7.5 7.5 7.5z" data-original="#000000" class="active-path" data-old_color="#000000" fill="#5B98CF"/><path d="m162.218 142.522c4.143 0 7.5-3.357 7.5-7.5v-8.914c0-4.143-3.357-7.5-7.5-7.5s-7.5 3.357-7.5 7.5v8.914c0 4.143 3.358 7.5 7.5 7.5z" data-original="#000000" class="active-path" data-old_color="#000000" fill="#5B98CF"/><path d="m192.069 189.646c4.143 0 7.5-3.357 7.5-7.5v-8.915c0-4.143-3.357-7.5-7.5-7.5s-7.5 3.357-7.5 7.5v8.915c0 4.142 3.357 7.5 7.5 7.5z" data-original="#000000" class="active-path" data-old_color="#000000" fill="#5B98CF"/><path d="m162.218 189.646c4.143 0 7.5-3.357 7.5-7.5v-8.915c0-4.143-3.357-7.5-7.5-7.5s-7.5 3.357-7.5 7.5v8.915c0 4.142 3.358 7.5 7.5 7.5z" data-original="#000000" class="active-path" data-old_color="#000000" fill="#5B98CF"/><path d="m102.518 236.768c4.143 0 7.5-3.357 7.5-7.5v-8.915c0-4.143-3.357-7.5-7.5-7.5s-7.5 3.357-7.5 7.5v8.915c0 4.142 3.357 7.5 7.5 7.5z" data-original="#000000" class="active-path" data-old_color="#000000" fill="#5B98CF"/><path d="m72.667 236.768c4.143 0 7.5-3.357 7.5-7.5v-8.915c0-4.143-3.357-7.5-7.5-7.5s-7.5 3.357-7.5 7.5v8.915c0 4.142 3.358 7.5 7.5 7.5z" data-original="#000000" class="active-path" data-old_color="#000000" fill="#5B98CF"/><path d="m132.368 236.768c4.143 0 7.5-3.357 7.5-7.5v-8.915c0-4.143-3.357-7.5-7.5-7.5s-7.5 3.357-7.5 7.5v8.915c0 4.142 3.357 7.5 7.5 7.5z" data-original="#000000" class="active-path" data-old_color="#000000" fill="#5B98CF"/><path d="m102.518 283.89c4.143 0 7.5-3.357 7.5-7.5v-8.914c0-4.143-3.357-7.5-7.5-7.5s-7.5 3.357-7.5 7.5v8.914c0 4.142 3.357 7.5 7.5 7.5z" data-original="#000000" class="active-path" data-old_color="#000000" fill="#5B98CF"/><path d="m72.667 283.89c4.143 0 7.5-3.357 7.5-7.5v-8.914c0-4.143-3.357-7.5-7.5-7.5s-7.5 3.357-7.5 7.5v8.914c0 4.142 3.358 7.5 7.5 7.5z" data-original="#000000" class="active-path" data-old_color="#000000" fill="#5B98CF"/><path d="m132.368 283.89c4.143 0 7.5-3.357 7.5-7.5v-8.914c0-4.143-3.357-7.5-7.5-7.5s-7.5 3.357-7.5 7.5v8.914c0 4.142 3.357 7.5 7.5 7.5z" data-original="#000000" class="active-path" data-old_color="#000000" fill="#5B98CF"/><path d="m102.518 331.013c4.143 0 7.5-3.357 7.5-7.5v-8.915c0-4.143-3.357-7.5-7.5-7.5s-7.5 3.357-7.5 7.5v8.915c0 4.142 3.357 7.5 7.5 7.5z" data-original="#000000" class="active-path" data-old_color="#000000" fill="#5B98CF"/><path d="m72.667 331.013c4.143 0 7.5-3.357 7.5-7.5v-8.915c0-4.143-3.357-7.5-7.5-7.5s-7.5 3.357-7.5 7.5v8.915c0 4.142 3.358 7.5 7.5 7.5z" data-original="#000000" class="active-path" data-old_color="#000000" fill="#5B98CF"/><path d="m132.368 331.013c4.143 0 7.5-3.357 7.5-7.5v-8.915c0-4.143-3.357-7.5-7.5-7.5s-7.5 3.357-7.5 7.5v8.915c0 4.142 3.357 7.5 7.5 7.5z" data-original="#000000" class="active-path" data-old_color="#000000" fill="#5B98CF"/><path d="m192.069 236.768c4.143 0 7.5-3.357 7.5-7.5v-8.915c0-4.143-3.357-7.5-7.5-7.5s-7.5 3.357-7.5 7.5v8.915c0 4.142 3.357 7.5 7.5 7.5z" data-original="#000000" class="active-path" data-old_color="#000000" fill="#5B98CF"/><path d="m162.218 236.768c4.143 0 7.5-3.357 7.5-7.5v-8.915c0-4.143-3.357-7.5-7.5-7.5s-7.5 3.357-7.5 7.5v8.915c0 4.142 3.358 7.5 7.5 7.5z" data-original="#000000" class="active-path" data-old_color="#000000" fill="#5B98CF"/><path d="m192.069 283.89c4.143 0 7.5-3.357 7.5-7.5v-8.914c0-4.143-3.357-7.5-7.5-7.5s-7.5 3.357-7.5 7.5v8.914c0 4.142 3.357 7.5 7.5 7.5z" data-original="#000000" class="active-path" data-old_color="#000000" fill="#5B98CF"/><path d="m162.218 283.89c4.143 0 7.5-3.357 7.5-7.5v-8.914c0-4.143-3.357-7.5-7.5-7.5s-7.5 3.357-7.5 7.5v8.914c0 4.142 3.358 7.5 7.5 7.5z" data-original="#000000" class="active-path" data-old_color="#000000" fill="#5B98CF"/><path d="m192.069 331.013c4.143 0 7.5-3.357 7.5-7.5v-8.915c0-4.143-3.357-7.5-7.5-7.5s-7.5 3.357-7.5 7.5v8.915c0 4.142 3.357 7.5 7.5 7.5z" data-original="#000000" class="active-path" data-old_color="#000000" fill="#5B98CF"/><path d="m162.218 331.013c4.143 0 7.5-3.357 7.5-7.5v-8.915c0-4.143-3.357-7.5-7.5-7.5s-7.5 3.357-7.5 7.5v8.915c0 4.142 3.358 7.5 7.5 7.5z" data-original="#000000" class="active-path" data-old_color="#000000" fill="#5B98CF"/><path d="m102.518 378.135c4.143 0 7.5-3.357 7.5-7.5v-8.914c0-4.143-3.357-7.5-7.5-7.5s-7.5 3.357-7.5 7.5v8.914c0 4.142 3.357 7.5 7.5 7.5z" data-original="#000000" class="active-path" data-old_color="#000000" fill="#5B98CF"/><path d="m72.667 378.135c4.143 0 7.5-3.357 7.5-7.5v-8.914c0-4.143-3.357-7.5-7.5-7.5s-7.5 3.357-7.5 7.5v8.914c0 4.142 3.358 7.5 7.5 7.5z" data-original="#000000" class="active-path" data-old_color="#000000" fill="#5B98CF"/><path d="m132.368 378.135c4.143 0 7.5-3.357 7.5-7.5v-8.914c0-4.143-3.357-7.5-7.5-7.5s-7.5 3.357-7.5 7.5v8.914c0 4.142 3.357 7.5 7.5 7.5z" data-original="#000000" class="active-path" data-old_color="#000000" fill="#5B98CF"/><path d="m102.518 425.258c4.143 0 7.5-3.357 7.5-7.5v-8.915c0-4.143-3.357-7.5-7.5-7.5s-7.5 3.357-7.5 7.5v8.915c0 4.142 3.357 7.5 7.5 7.5z" data-original="#000000" class="active-path" data-old_color="#000000" fill="#5B98CF"/><path d="m72.667 425.258c4.143 0 7.5-3.357 7.5-7.5v-8.915c0-4.143-3.357-7.5-7.5-7.5s-7.5 3.357-7.5 7.5v8.915c0 4.142 3.358 7.5 7.5 7.5z" data-original="#000000" class="active-path" data-old_color="#000000" fill="#5B98CF"/><path d="m132.368 425.258c4.143 0 7.5-3.357 7.5-7.5v-8.915c0-4.143-3.357-7.5-7.5-7.5s-7.5 3.357-7.5 7.5v8.915c0 4.142 3.357 7.5 7.5 7.5z" data-original="#000000" class="active-path" data-old_color="#000000" fill="#5B98CF"/><path d="m72.667 472.38c4.143 0 7.5-3.357 7.5-7.5v-8.914c0-4.143-3.357-7.5-7.5-7.5s-7.5 3.357-7.5 7.5v8.914c0 4.142 3.358 7.5 7.5 7.5z" data-original="#000000" class="active-path" data-old_color="#000000" fill="#5B98CF"/><path d="m192.069 378.135c4.143 0 7.5-3.357 7.5-7.5v-8.914c0-4.143-3.357-7.5-7.5-7.5s-7.5 3.357-7.5 7.5v8.914c0 4.142 3.357 7.5 7.5 7.5z" data-original="#000000" class="active-path" data-old_color="#000000" fill="#5B98CF"/><path d="m162.218 378.135c4.143 0 7.5-3.357 7.5-7.5v-8.914c0-4.143-3.357-7.5-7.5-7.5s-7.5 3.357-7.5 7.5v8.914c0 4.142 3.358 7.5 7.5 7.5z" data-original="#000000" class="active-path" data-old_color="#000000" fill="#5B98CF"/><path d="m192.069 425.258c4.143 0 7.5-3.357 7.5-7.5v-8.915c0-4.143-3.357-7.5-7.5-7.5s-7.5 3.357-7.5 7.5v8.915c0 4.142 3.357 7.5 7.5 7.5z" data-original="#000000" class="active-path" data-old_color="#000000" fill="#5B98CF"/><path d="m162.218 425.258c4.143 0 7.5-3.357 7.5-7.5v-8.915c0-4.143-3.357-7.5-7.5-7.5s-7.5 3.357-7.5 7.5v8.915c0 4.142 3.358 7.5 7.5 7.5z" data-original="#000000" class="active-path" data-old_color="#000000" fill="#5B98CF"/><path d="m192.069 472.38c4.143 0 7.5-3.357 7.5-7.5v-8.914c0-4.143-3.357-7.5-7.5-7.5s-7.5 3.357-7.5 7.5v8.914c0 4.142 3.357 7.5 7.5 7.5z" data-original="#000000" class="active-path" data-old_color="#000000" fill="#5B98CF"/><path d="m357.281 78.985c0-4.143-3.357-7.5-7.5-7.5s-7.5 3.357-7.5 7.5v8.915c0 4.143 3.357 7.5 7.5 7.5s7.5-3.357 7.5-7.5z" data-original="#000000" class="active-path" data-old_color="#000000" fill="#5B98CF"/><path d="m327.431 78.985c0-4.143-3.357-7.5-7.5-7.5s-7.5 3.357-7.5 7.5v8.915c0 4.143 3.357 7.5 7.5 7.5s7.5-3.357 7.5-7.5z" data-original="#000000" class="active-path" data-old_color="#000000" fill="#5B98CF"/><path d="m387.131 78.985c0-4.143-3.357-7.5-7.5-7.5s-7.5 3.357-7.5 7.5v8.915c0 4.143 3.357 7.5 7.5 7.5s7.5-3.357 7.5-7.5z" data-original="#000000" class="active-path" data-old_color="#000000" fill="#5B98CF"/><path d="m357.281 126.108c0-4.143-3.357-7.5-7.5-7.5s-7.5 3.357-7.5 7.5v8.914c0 4.143 3.357 7.5 7.5 7.5s7.5-3.357 7.5-7.5z" data-original="#000000" class="active-path" data-old_color="#000000" fill="#5B98CF"/><path d="m327.431 126.108c0-4.143-3.357-7.5-7.5-7.5s-7.5 3.357-7.5 7.5v8.914c0 4.143 3.357 7.5 7.5 7.5s7.5-3.357 7.5-7.5z" data-original="#000000" class="active-path" data-old_color="#000000" fill="#5B98CF"/><path d="m387.131 126.108c0-4.143-3.357-7.5-7.5-7.5s-7.5 3.357-7.5 7.5v8.914c0 4.143 3.357 7.5 7.5 7.5s7.5-3.357 7.5-7.5z" data-original="#000000" class="active-path" data-old_color="#000000" fill="#5B98CF"/><path d="m357.281 173.23c0-4.143-3.357-7.5-7.5-7.5s-7.5 3.357-7.5 7.5v8.915c0 4.143 3.357 7.5 7.5 7.5s7.5-3.357 7.5-7.5z" data-original="#000000" class="active-path" data-old_color="#000000" fill="#5B98CF"/><path d="m327.431 173.23c0-4.143-3.357-7.5-7.5-7.5s-7.5 3.357-7.5 7.5v8.915c0 4.143 3.357 7.5 7.5 7.5s7.5-3.357 7.5-7.5z" data-original="#000000" class="active-path" data-old_color="#000000" fill="#5B98CF"/><path d="m387.131 173.23c0-4.143-3.357-7.5-7.5-7.5s-7.5 3.357-7.5 7.5v8.915c0 4.143 3.357 7.5 7.5 7.5s7.5-3.357 7.5-7.5z" data-original="#000000" class="active-path" data-old_color="#000000" fill="#5B98CF"/><path d="m446.832 78.985c0-4.143-3.357-7.5-7.5-7.5s-7.5 3.357-7.5 7.5v8.915c0 4.143 3.357 7.5 7.5 7.5s7.5-3.357 7.5-7.5z" data-original="#000000" class="active-path" data-old_color="#000000" fill="#5B98CF"/><path d="m416.981 78.985c0-4.143-3.357-7.5-7.5-7.5s-7.5 3.357-7.5 7.5v8.915c0 4.143 3.357 7.5 7.5 7.5s7.5-3.357 7.5-7.5z" data-original="#000000" class="active-path" data-old_color="#000000" fill="#5B98CF"/><path d="m446.832 126.108c0-4.143-3.357-7.5-7.5-7.5s-7.5 3.357-7.5 7.5v8.914c0 4.143 3.357 7.5 7.5 7.5s7.5-3.357 7.5-7.5z" data-original="#000000" class="active-path" data-old_color="#000000" fill="#5B98CF"/><path d="m416.981 126.108c0-4.143-3.357-7.5-7.5-7.5s-7.5 3.357-7.5 7.5v8.914c0 4.143 3.357 7.5 7.5 7.5s7.5-3.357 7.5-7.5z" data-original="#000000" class="active-path" data-old_color="#000000" fill="#5B98CF"/><path d="m446.832 173.23c0-4.143-3.357-7.5-7.5-7.5s-7.5 3.357-7.5 7.5v8.915c0 4.143 3.357 7.5 7.5 7.5s7.5-3.357 7.5-7.5z" data-original="#000000" class="active-path" data-old_color="#000000" fill="#5B98CF"/><path d="m416.981 173.23c0-4.143-3.357-7.5-7.5-7.5s-7.5 3.357-7.5 7.5v8.915c0 4.143 3.357 7.5 7.5 7.5s7.5-3.357 7.5-7.5z" data-original="#000000" class="active-path" data-old_color="#000000" fill="#5B98CF"/><path d="m357.281 220.353c0-4.143-3.357-7.5-7.5-7.5s-7.5 3.357-7.5 7.5v8.915c0 4.143 3.357 7.5 7.5 7.5s7.5-3.357 7.5-7.5z" data-original="#000000" class="active-path" data-old_color="#000000" fill="#5B98CF"/><path d="m327.431 220.353c0-4.143-3.357-7.5-7.5-7.5s-7.5 3.357-7.5 7.5v8.915c0 4.143 3.357 7.5 7.5 7.5s7.5-3.357 7.5-7.5z" data-original="#000000" class="active-path" data-old_color="#000000" fill="#5B98CF"/><path d="m387.131 220.353c0-4.143-3.357-7.5-7.5-7.5s-7.5 3.357-7.5 7.5v8.915c0 4.143 3.357 7.5 7.5 7.5s7.5-3.357 7.5-7.5z" data-original="#000000" class="active-path" data-old_color="#000000" fill="#5B98CF"/><path d="m357.281 267.476c0-4.143-3.357-7.5-7.5-7.5s-7.5 3.357-7.5 7.5v8.914c0 4.143 3.357 7.5 7.5 7.5s7.5-3.357 7.5-7.5z" data-original="#000000" class="active-path" data-old_color="#000000" fill="#5B98CF"/><path d="m327.431 267.476c0-4.143-3.357-7.5-7.5-7.5s-7.5 3.357-7.5 7.5v8.914c0 4.143 3.357 7.5 7.5 7.5s7.5-3.357 7.5-7.5z" data-original="#000000" class="active-path" data-old_color="#000000" fill="#5B98CF"/><path d="m387.131 267.476c0-4.143-3.357-7.5-7.5-7.5s-7.5 3.357-7.5 7.5v8.914c0 4.143 3.357 7.5 7.5 7.5s7.5-3.357 7.5-7.5z" data-original="#000000" class="active-path" data-old_color="#000000" fill="#5B98CF"/><path d="m357.281 314.598c0-4.143-3.357-7.5-7.5-7.5s-7.5 3.357-7.5 7.5v8.915c0 4.143 3.357 7.5 7.5 7.5s7.5-3.357 7.5-7.5z" data-original="#000000" class="active-path" data-old_color="#000000" fill="#5B98CF"/><path d="m327.431 314.598c0-4.143-3.357-7.5-7.5-7.5s-7.5 3.357-7.5 7.5v8.915c0 4.143 3.357 7.5 7.5 7.5s7.5-3.357 7.5-7.5z" data-original="#000000" class="active-path" data-old_color="#000000" fill="#5B98CF"/><path d="m387.131 314.598c0-4.143-3.357-7.5-7.5-7.5s-7.5 3.357-7.5 7.5v8.915c0 4.143 3.357 7.5 7.5 7.5s7.5-3.357 7.5-7.5z" data-original="#000000" class="active-path" data-old_color="#000000" fill="#5B98CF"/><path d="m446.832 220.353c0-4.143-3.357-7.5-7.5-7.5s-7.5 3.357-7.5 7.5v8.915c0 4.143 3.357 7.5 7.5 7.5s7.5-3.357 7.5-7.5z" data-original="#000000" class="active-path" data-old_color="#000000" fill="#5B98CF"/><path d="m416.981 220.353c0-4.143-3.357-7.5-7.5-7.5s-7.5 3.357-7.5 7.5v8.915c0 4.143 3.357 7.5 7.5 7.5s7.5-3.357 7.5-7.5z" data-original="#000000" class="active-path" data-old_color="#000000" fill="#5B98CF"/><path d="m446.832 267.476c0-4.143-3.357-7.5-7.5-7.5s-7.5 3.357-7.5 7.5v8.914c0 4.143 3.357 7.5 7.5 7.5s7.5-3.357 7.5-7.5z" data-original="#000000" class="active-path" data-old_color="#000000" fill="#5B98CF"/><path d="m416.981 267.476c0-4.143-3.357-7.5-7.5-7.5s-7.5 3.357-7.5 7.5v8.914c0 4.143 3.357 7.5 7.5 7.5s7.5-3.357 7.5-7.5z" data-original="#000000" class="active-path" data-old_color="#000000" fill="#5B98CF"/><path d="m446.832 314.598c0-4.143-3.357-7.5-7.5-7.5s-7.5 3.357-7.5 7.5v8.915c0 4.143 3.357 7.5 7.5 7.5s7.5-3.357 7.5-7.5z" data-original="#000000" class="active-path" data-old_color="#000000" fill="#5B98CF"/><path d="m416.981 314.598c0-4.143-3.357-7.5-7.5-7.5s-7.5 3.357-7.5 7.5v8.915c0 4.143 3.357 7.5 7.5 7.5s7.5-3.357 7.5-7.5z" data-original="#000000" class="active-path" data-old_color="#000000" fill="#5B98CF"/><path d="m357.281 361.721c0-4.143-3.357-7.5-7.5-7.5s-7.5 3.357-7.5 7.5v8.914c0 4.143 3.357 7.5 7.5 7.5s7.5-3.357 7.5-7.5z" data-original="#000000" class="active-path" data-old_color="#000000" fill="#5B98CF"/><path d="m327.431 361.721c0-4.143-3.357-7.5-7.5-7.5s-7.5 3.357-7.5 7.5v8.914c0 4.143 3.357 7.5 7.5 7.5s7.5-3.357 7.5-7.5z" data-original="#000000" class="active-path" data-old_color="#000000" fill="#5B98CF"/><path d="m387.131 361.721c0-4.143-3.357-7.5-7.5-7.5s-7.5 3.357-7.5 7.5v8.914c0 4.143 3.357 7.5 7.5 7.5s7.5-3.357 7.5-7.5z" data-original="#000000" class="active-path" data-old_color="#000000" fill="#5B98CF"/><path d="m349.781 401.343c-4.143 0-7.5 3.357-7.5 7.5v8.915c0 4.143 3.357 7.5 7.5 7.5s7.5-3.357 7.5-7.5v-8.915c0-4.143-3.358-7.5-7.5-7.5z" data-original="#000000" class="active-path" data-old_color="#000000" fill="#5B98CF"/><path d="m327.431 408.843c0-4.143-3.357-7.5-7.5-7.5s-7.5 3.357-7.5 7.5v8.915c0 4.143 3.357 7.5 7.5 7.5s7.5-3.357 7.5-7.5z" data-original="#000000" class="active-path" data-old_color="#000000" fill="#5B98CF"/><path d="m379.631 401.343c-4.143 0-7.5 3.357-7.5 7.5v8.915c0 4.143 3.357 7.5 7.5 7.5s7.5-3.357 7.5-7.5v-8.915c0-4.143-3.357-7.5-7.5-7.5z" data-original="#000000" class="active-path" data-old_color="#000000" fill="#5B98CF"/><path d="m319.931 448.466c-4.143 0-7.5 3.357-7.5 7.5v8.914c0 4.143 3.357 7.5 7.5 7.5s7.5-3.357 7.5-7.5v-8.914c0-4.143-3.357-7.5-7.5-7.5z" data-original="#000000" class="active-path" data-old_color="#000000" fill="#5B98CF"/><path d="m256 425.258c4.143 0 7.5-3.357 7.5-7.5v-8.915c0-4.143-3.357-7.5-7.5-7.5s-7.5 3.357-7.5 7.5v8.915c0 4.142 3.357 7.5 7.5 7.5z" data-original="#000000" class="active-path" data-old_color="#000000" fill="#5B98CF"/><path d="m256 472.38c4.143 0 7.5-3.357 7.5-7.5v-8.914c0-4.143-3.357-7.5-7.5-7.5s-7.5 3.357-7.5 7.5v8.914c0 4.142 3.357 7.5 7.5 7.5z" data-original="#000000" class="active-path" data-old_color="#000000" fill="#5B98CF"/><path d="m446.832 361.721c0-4.143-3.357-7.5-7.5-7.5s-7.5 3.357-7.5 7.5v8.914c0 4.143 3.357 7.5 7.5 7.5s7.5-3.357 7.5-7.5z" data-original="#000000" class="active-path" data-old_color="#000000" fill="#5B98CF"/><path d="m416.981 361.721c0-4.143-3.357-7.5-7.5-7.5s-7.5 3.357-7.5 7.5v8.914c0 4.143 3.357 7.5 7.5 7.5s7.5-3.357 7.5-7.5z" data-original="#000000" class="active-path" data-old_color="#000000" fill="#5B98CF"/><path d="m446.832 408.843c0-4.143-3.357-7.5-7.5-7.5s-7.5 3.357-7.5 7.5v8.915c0 4.143 3.357 7.5 7.5 7.5s7.5-3.357 7.5-7.5z" data-original="#000000" class="active-path" data-old_color="#000000" fill="#5B98CF"/><path d="m409.481 401.343c-4.143 0-7.5 3.357-7.5 7.5v8.915c0 4.143 3.357 7.5 7.5 7.5s7.5-3.357 7.5-7.5v-8.915c0-4.143-3.357-7.5-7.5-7.5z" data-original="#000000" class="active-path" data-old_color="#000000" fill="#5B98CF"/><path d="m439.332 448.466c-4.143 0-7.5 3.357-7.5 7.5v8.914c0 4.143 3.357 7.5 7.5 7.5s7.5-3.357 7.5-7.5v-8.914c0-4.143-3.358-7.5-7.5-7.5z" data-original="#000000" class="active-path" data-old_color="#000000" fill="#5B98CF"/><path d="m484.953 0h-87.821c-4.143 0-7.5 3.357-7.5 7.5s3.357 7.5 7.5 7.5h83.757v14.143c-6.982 0-189.281 0-202.514 0v-14.143h83.757c4.143 0 7.5-3.357 7.5-7.5s-3.357-7.5-7.5-7.5h-87.822c-6.029 0-10.935 4.905-10.935 10.936v22.272c0 6.029 4.905 10.935 10.935 10.935h.169v289.85h-36.957v-289.85h.169c6.029 0 10.935-4.905 10.935-10.935v-22.273c-.001-6.03-4.907-10.935-10.936-10.935h-210.644c-6.029 0-10.935 4.905-10.935 10.935v22.273c0 6.029 4.905 10.935 10.935 10.935h.169v452.857h-.402c-4.143 0-7.5 3.357-7.5 7.5s3.357 7.5 7.5 7.5h458.788c4.143 0 7.5-3.357 7.5-7.5s-3.357-7.5-7.5-7.5h-.816v-203.109c0-4.143-3.357-7.5-7.5-7.5s-7.5 3.357-7.5 7.5v203.109h-52.804v-36.252c0-6.772-5.51-12.282-12.282-12.282-7.273 0-42.866 0-50.136 0-6.772 0-12.282 5.51-12.282 12.282v36.252h-52.803v-126.365-29.143-297.349h180.307v214.748c0 4.143 3.357 7.5 7.5 7.5s7.5-3.357 7.5-7.5v-214.748h.168c6.03 0 10.936-4.905 10.936-10.935v-22.272c-.001-6.031-4.906-10.936-10.936-10.936zm-360.085 497h-14.85v-33.534h14.85zm29.85 0h-14.851v-33.534h14.851zm67.803-155.508v29.143 126.365h-52.803v-36.252c0-6.772-5.51-12.282-12.282-12.282-7.272 0-42.865 0-50.137 0-6.771 0-12.281 5.51-12.281 12.282v36.252h-52.803v-452.857h180.306zm11.104-312.349c-6.982 0-189.28 0-202.513 0v-14.143h202.513zm40.853 467.857h-36.957v-118.865h36.957zm0-133.865h-36.957v-14.143h36.957zm112.653 100.331h14.85v33.534h-14.85zm-29.85 0h14.851v33.534h-14.851z" data-original="#000000" class="active-path" data-old_color="#000000" fill="#5B98CF"/></g></g> </svg>
